<mxfile host="65bd71144e">
    <diagram name="Page-1" id="vqQYrrzuRanohj5SVxie">
        <mxGraphModel dx="1064" dy="529" grid="1" gridSize="10" guides="1" tooltips="1" connect="1" arrows="1" fold="1" page="1" pageScale="1" pageWidth="1654" pageHeight="1169" math="0" shadow="0">
            <root>
                <mxCell id="0"/>
                <mxCell id="1" parent="0"/>
                <mxCell id="ey6UAfCEmoFDKdkTlSG3-13" style="edgeStyle=orthogonalEdgeStyle;rounded=0;orthogonalLoop=1;jettySize=auto;html=1;exitX=1;exitY=0.75;exitDx=0;exitDy=0;entryX=0;entryY=0.5;entryDx=0;entryDy=0;entryPerimeter=0;" parent="1" source="xgAKM0cmW9O3aGKXdA-6-19" target="ey6UAfCEmoFDKdkTlSG3-10" edge="1">
                    <mxGeometry relative="1" as="geometry"/>
                </mxCell>
                <mxCell id="xgAKM0cmW9O3aGKXdA-6-2" style="edgeStyle=orthogonalEdgeStyle;rounded=0;orthogonalLoop=1;jettySize=auto;html=1;" parent="1" target="xgAKM0cmW9O3aGKXdA-6-1" edge="1">
                    <mxGeometry relative="1" as="geometry">
                        <mxPoint x="70" y="460" as="sourcePoint"/>
                    </mxGeometry>
                </mxCell>
                <mxCell id="xgAKM0cmW9O3aGKXdA-6-17" value="i_phys_byte" style="edgeLabel;html=1;align=center;verticalAlign=middle;resizable=0;points=[];" parent="xgAKM0cmW9O3aGKXdA-6-2" vertex="1" connectable="0">
                    <mxGeometry x="-0.5851" relative="1" as="geometry">
                        <mxPoint x="25" as="offset"/>
                    </mxGeometry>
                </mxCell>
                <mxCell id="xgAKM0cmW9O3aGKXdA-6-4" style="edgeStyle=orthogonalEdgeStyle;rounded=0;orthogonalLoop=1;jettySize=auto;html=1;entryX=0;entryY=0.75;entryDx=0;entryDy=0;exitX=1;exitY=0.5;exitDx=0;exitDy=0;" parent="1" source="xgAKM0cmW9O3aGKXdA-6-1" target="xgAKM0cmW9O3aGKXdA-6-3" edge="1">
                    <mxGeometry relative="1" as="geometry">
                        <mxPoint x="290" y="400" as="sourcePoint"/>
                    </mxGeometry>
                </mxCell>
                <mxCell id="xgAKM0cmW9O3aGKXdA-6-11" style="edgeStyle=orthogonalEdgeStyle;rounded=0;orthogonalLoop=1;jettySize=auto;html=1;entryX=0;entryY=0.75;entryDx=0;entryDy=0;exitX=1;exitY=0.5;exitDx=0;exitDy=0;" parent="1" source="xgAKM0cmW9O3aGKXdA-6-1" target="xgAKM0cmW9O3aGKXdA-6-9" edge="1">
                    <mxGeometry relative="1" as="geometry">
                        <mxPoint x="290" y="400" as="sourcePoint"/>
                    </mxGeometry>
                </mxCell>
                <mxCell id="xgAKM0cmW9O3aGKXdA-6-13" style="edgeStyle=orthogonalEdgeStyle;rounded=0;orthogonalLoop=1;jettySize=auto;html=1;entryX=0;entryY=0.75;entryDx=0;entryDy=0;exitX=1;exitY=0.5;exitDx=0;exitDy=0;" parent="1" source="xgAKM0cmW9O3aGKXdA-6-1" target="xgAKM0cmW9O3aGKXdA-6-12" edge="1">
                    <mxGeometry relative="1" as="geometry">
                        <mxPoint x="290" y="400" as="sourcePoint"/>
                    </mxGeometry>
                </mxCell>
                <mxCell id="xgAKM0cmW9O3aGKXdA-6-16" style="edgeStyle=orthogonalEdgeStyle;rounded=0;orthogonalLoop=1;jettySize=auto;html=1;" parent="1" target="xgAKM0cmW9O3aGKXdA-6-1" edge="1">
                    <mxGeometry relative="1" as="geometry">
                        <mxPoint x="70" y="430" as="sourcePoint"/>
                        <Array as="points">
                            <mxPoint x="70" y="431"/>
                            <mxPoint x="210" y="431"/>
                            <mxPoint x="210" y="460"/>
                        </Array>
                    </mxGeometry>
                </mxCell>
                <mxCell id="xgAKM0cmW9O3aGKXdA-6-18" value="i_phys_k_en" style="edgeLabel;html=1;align=center;verticalAlign=middle;resizable=0;points=[];" parent="xgAKM0cmW9O3aGKXdA-6-16" vertex="1" connectable="0">
                    <mxGeometry x="-0.7459" y="1" relative="1" as="geometry">
                        <mxPoint x="36" as="offset"/>
                    </mxGeometry>
                </mxCell>
                <mxCell id="xgAKM0cmW9O3aGKXdA-6-27" style="edgeStyle=orthogonalEdgeStyle;rounded=0;orthogonalLoop=1;jettySize=auto;html=1;entryX=0;entryY=0.75;entryDx=0;entryDy=0;" parent="1" source="xgAKM0cmW9O3aGKXdA-6-1" target="xgAKM0cmW9O3aGKXdA-6-26" edge="1">
                    <mxGeometry relative="1" as="geometry"/>
                </mxCell>
                <mxCell id="xgAKM0cmW9O3aGKXdA-6-42" style="edgeStyle=orthogonalEdgeStyle;rounded=0;orthogonalLoop=1;jettySize=auto;html=1;entryX=0;entryY=0.5;entryDx=0;entryDy=0;" parent="1" source="xgAKM0cmW9O3aGKXdA-6-1" target="xgAKM0cmW9O3aGKXdA-6-19" edge="1">
                    <mxGeometry relative="1" as="geometry"/>
                </mxCell>
                <mxCell id="xgAKM0cmW9O3aGKXdA-6-51" style="edgeStyle=orthogonalEdgeStyle;rounded=0;orthogonalLoop=1;jettySize=auto;html=1;entryX=0;entryY=0.75;entryDx=0;entryDy=0;" parent="1" source="xgAKM0cmW9O3aGKXdA-6-1" target="xgAKM0cmW9O3aGKXdA-6-22" edge="1">
                    <mxGeometry relative="1" as="geometry"/>
                </mxCell>
                <mxCell id="xgAKM0cmW9O3aGKXdA-6-1" value="PHYS" style="rounded=0;whiteSpace=wrap;html=1;textDirection=vertical-lr;fillColor=#f5f5f5;gradientColor=#b3b3b3;strokeColor=#666666;" parent="1" vertex="1">
                    <mxGeometry x="240" y="400" width="40" height="120" as="geometry"/>
                </mxCell>
                <mxCell id="xgAKM0cmW9O3aGKXdA-6-5" style="edgeStyle=orthogonalEdgeStyle;rounded=0;orthogonalLoop=1;jettySize=auto;html=1;entryX=0;entryY=0.25;entryDx=0;entryDy=0;" parent="1" target="xgAKM0cmW9O3aGKXdA-6-3" edge="1">
                    <mxGeometry relative="1" as="geometry">
                        <mxPoint x="170" y="55" as="sourcePoint"/>
                    </mxGeometry>
                </mxCell>
                <mxCell id="xgAKM0cmW9O3aGKXdA-6-6" value="K_START_TLP" style="edgeLabel;html=1;align=center;verticalAlign=middle;resizable=0;points=[];" parent="xgAKM0cmW9O3aGKXdA-6-5" vertex="1" connectable="0">
                    <mxGeometry x="-0.3592" relative="1" as="geometry">
                        <mxPoint x="21" as="offset"/>
                    </mxGeometry>
                </mxCell>
                <mxCell id="xgAKM0cmW9O3aGKXdA-6-3" value="==" style="whiteSpace=wrap;html=1;aspect=fixed;fillColor=#f5f5f5;gradientColor=#b3b3b3;strokeColor=#666666;" parent="1" vertex="1">
                    <mxGeometry x="360" y="40" width="60" height="60" as="geometry"/>
                </mxCell>
                <mxCell id="xgAKM0cmW9O3aGKXdA-6-7" style="edgeStyle=orthogonalEdgeStyle;rounded=0;orthogonalLoop=1;jettySize=auto;html=1;entryX=0;entryY=0.25;entryDx=0;entryDy=0;jumpStyle=arc;" parent="1" target="xgAKM0cmW9O3aGKXdA-6-9" edge="1">
                    <mxGeometry relative="1" as="geometry">
                        <mxPoint x="170" y="155" as="sourcePoint"/>
                    </mxGeometry>
                </mxCell>
                <mxCell id="xgAKM0cmW9O3aGKXdA-6-8" value="K_START_DLLP" style="edgeLabel;html=1;align=center;verticalAlign=middle;resizable=0;points=[];" parent="xgAKM0cmW9O3aGKXdA-6-7" vertex="1" connectable="0">
                    <mxGeometry x="-0.3592" relative="1" as="geometry">
                        <mxPoint x="21" as="offset"/>
                    </mxGeometry>
                </mxCell>
                <mxCell id="xgAKM0cmW9O3aGKXdA-6-9" value="==" style="whiteSpace=wrap;html=1;aspect=fixed;fillColor=#f5f5f5;gradientColor=#b3b3b3;strokeColor=#666666;" parent="1" vertex="1">
                    <mxGeometry x="360" y="140" width="60" height="60" as="geometry"/>
                </mxCell>
                <mxCell id="xgAKM0cmW9O3aGKXdA-6-14" style="edgeStyle=orthogonalEdgeStyle;rounded=0;orthogonalLoop=1;jettySize=auto;html=1;exitX=0;exitY=0.25;exitDx=0;exitDy=0;entryX=0;entryY=0.25;entryDx=0;entryDy=0;jumpStyle=arc;" parent="1" target="xgAKM0cmW9O3aGKXdA-6-12" edge="1">
                    <mxGeometry relative="1" as="geometry">
                        <mxPoint x="170" y="255" as="sourcePoint"/>
                    </mxGeometry>
                </mxCell>
                <mxCell id="xgAKM0cmW9O3aGKXdA-6-15" value="K_STOP" style="edgeLabel;html=1;align=center;verticalAlign=middle;resizable=0;points=[];" parent="xgAKM0cmW9O3aGKXdA-6-14" vertex="1" connectable="0">
                    <mxGeometry x="-0.4435" y="-1" relative="1" as="geometry">
                        <mxPoint x="27" as="offset"/>
                    </mxGeometry>
                </mxCell>
                <mxCell id="xgAKM0cmW9O3aGKXdA-6-12" value="==" style="whiteSpace=wrap;html=1;aspect=fixed;fillColor=#f5f5f5;gradientColor=#b3b3b3;strokeColor=#666666;" parent="1" vertex="1">
                    <mxGeometry x="360" y="240" width="60" height="60" as="geometry"/>
                </mxCell>
                <mxCell id="5" value="crc_header" style="edgeStyle=orthogonalEdgeStyle;jumpStyle=arc;html=1;exitX=1;exitY=0.75;exitDx=0;exitDy=0;entryX=0;entryY=0.25;entryDx=0;entryDy=0;rounded=0;" edge="1" parent="1" source="xgAKM0cmW9O3aGKXdA-6-19" target="xgAKM0cmW9O3aGKXdA-6-48">
                    <mxGeometry x="0.3793" relative="1" as="geometry">
                        <Array as="points">
                            <mxPoint x="600" y="490"/>
                            <mxPoint x="600" y="595"/>
                        </Array>
                        <mxPoint as="offset"/>
                    </mxGeometry>
                </mxCell>
                <mxCell id="6" style="edgeStyle=orthogonalEdgeStyle;jumpStyle=arc;html=1;exitX=0;exitY=0.25;exitDx=0;exitDy=0;entryX=0;entryY=0.25;entryDx=0;entryDy=0;rounded=0;" edge="1" parent="1" source="xgAKM0cmW9O3aGKXdA-6-19" target="xgAKM0cmW9O3aGKXdA-6-22">
                    <mxGeometry relative="1" as="geometry">
                        <Array as="points">
                            <mxPoint x="480" y="430"/>
                            <mxPoint x="480" y="603"/>
                        </Array>
                    </mxGeometry>
                </mxCell>
                <mxCell id="7" value="crc_calc" style="edgeLabel;html=1;align=center;verticalAlign=middle;resizable=0;points=[];" vertex="1" connectable="0" parent="6">
                    <mxGeometry x="0.4602" relative="1" as="geometry">
                        <mxPoint as="offset"/>
                    </mxGeometry>
                </mxCell>
                <mxCell id="xgAKM0cmW9O3aGKXdA-6-19" value="SHIFT-REG" style="rounded=0;whiteSpace=wrap;html=1;fillColor=#dae8fc;gradientColor=#7ea6e0;strokeColor=#6c8ebf;" parent="1" vertex="1">
                    <mxGeometry x="500" y="400" width="80" height="120" as="geometry"/>
                </mxCell>
                <mxCell id="ey6UAfCEmoFDKdkTlSG3-11" style="edgeStyle=orthogonalEdgeStyle;rounded=0;orthogonalLoop=1;jettySize=auto;html=1;exitX=-0.018;exitY=0.729;exitDx=0;exitDy=0;exitPerimeter=0;entryX=1;entryY=0;entryDx=0;entryDy=27.5;entryPerimeter=0;" parent="1" source="xgAKM0cmW9O3aGKXdA-6-21" target="ey6UAfCEmoFDKdkTlSG3-10" edge="1">
                    <mxGeometry relative="1" as="geometry"/>
                </mxCell>
                <mxCell id="ey6UAfCEmoFDKdkTlSG3-12" value="wr_tr_result" style="edgeLabel;html=1;align=center;verticalAlign=middle;resizable=0;points=[];" parent="ey6UAfCEmoFDKdkTlSG3-11" vertex="1" connectable="0">
                    <mxGeometry x="0.1091" y="-2" relative="1" as="geometry">
                        <mxPoint x="11" y="2" as="offset"/>
                    </mxGeometry>
                </mxCell>
                <mxCell id="xgAKM0cmW9O3aGKXdA-6-21" value="CONTROLLER&lt;div&gt;(FSM)&lt;/div&gt;" style="rounded=0;whiteSpace=wrap;html=1;fillColor=#dae8fc;gradientColor=#7ea6e0;strokeColor=#6c8ebf;" parent="1" vertex="1">
                    <mxGeometry x="920" y="40" width="120" height="600" as="geometry"/>
                </mxCell>
                <mxCell id="xgAKM0cmW9O3aGKXdA-6-52" style="edgeStyle=orthogonalEdgeStyle;rounded=0;orthogonalLoop=1;jettySize=auto;html=1;entryX=0;entryY=0.75;entryDx=0;entryDy=0;" parent="1" source="xgAKM0cmW9O3aGKXdA-6-22" target="xgAKM0cmW9O3aGKXdA-6-48" edge="1">
                    <mxGeometry relative="1" as="geometry"/>
                </mxCell>
                <mxCell id="8" style="edgeStyle=orthogonalEdgeStyle;rounded=0;jumpStyle=arc;html=1;" edge="1" parent="1" target="xgAKM0cmW9O3aGKXdA-6-22">
                    <mxGeometry relative="1" as="geometry">
                        <mxPoint x="920" y="560" as="sourcePoint"/>
                        <Array as="points">
                            <mxPoint x="919" y="560"/>
                            <mxPoint x="540" y="560"/>
                        </Array>
                    </mxGeometry>
                </mxCell>
                <mxCell id="9" value="o_crc_init" style="edgeLabel;html=1;align=center;verticalAlign=middle;resizable=0;points=[];" vertex="1" connectable="0" parent="8">
                    <mxGeometry x="-0.6571" y="-1" relative="1" as="geometry">
                        <mxPoint x="9" as="offset"/>
                    </mxGeometry>
                </mxCell>
                <mxCell id="xgAKM0cmW9O3aGKXdA-6-22" value="CRC-8" style="rounded=0;whiteSpace=wrap;html=1;fillColor=#dae8fc;gradientColor=#7ea6e0;strokeColor=#6c8ebf;" parent="1" vertex="1">
                    <mxGeometry x="500" y="580" width="80" height="90" as="geometry"/>
                </mxCell>
                <mxCell id="xgAKM0cmW9O3aGKXdA-6-24" style="edgeStyle=orthogonalEdgeStyle;rounded=0;orthogonalLoop=1;jettySize=auto;html=1;exitX=0;exitY=0.25;exitDx=0;exitDy=0;entryX=0;entryY=0.25;entryDx=0;entryDy=0;jumpStyle=arc;" parent="1" target="xgAKM0cmW9O3aGKXdA-6-26" edge="1">
                    <mxGeometry relative="1" as="geometry">
                        <mxPoint x="170" y="355" as="sourcePoint"/>
                    </mxGeometry>
                </mxCell>
                <mxCell id="xgAKM0cmW9O3aGKXdA-6-25" value="K_SKP" style="edgeLabel;html=1;align=center;verticalAlign=middle;resizable=0;points=[];" parent="xgAKM0cmW9O3aGKXdA-6-24" vertex="1" connectable="0">
                    <mxGeometry x="-0.4435" y="-1" relative="1" as="geometry">
                        <mxPoint x="27" as="offset"/>
                    </mxGeometry>
                </mxCell>
                <mxCell id="ey6UAfCEmoFDKdkTlSG3-5" style="edgeStyle=orthogonalEdgeStyle;rounded=0;orthogonalLoop=1;jettySize=auto;html=1;entryX=0;entryY=0.25;entryDx=0;entryDy=0;" parent="1" source="xgAKM0cmW9O3aGKXdA-6-26" target="xgAKM0cmW9O3aGKXdA-6-19" edge="1">
                    <mxGeometry relative="1" as="geometry">
                        <Array as="points">
                            <mxPoint x="480" y="370"/>
                            <mxPoint x="480" y="430"/>
                        </Array>
                    </mxGeometry>
                </mxCell>
                <mxCell id="ey6UAfCEmoFDKdkTlSG3-6" value="shift_en" style="edgeLabel;html=1;align=center;verticalAlign=middle;resizable=0;points=[];" parent="ey6UAfCEmoFDKdkTlSG3-5" vertex="1" connectable="0">
                    <mxGeometry x="0.0714" relative="1" as="geometry">
                        <mxPoint as="offset"/>
                    </mxGeometry>
                </mxCell>
                <mxCell id="xgAKM0cmW9O3aGKXdA-6-26" value="==" style="whiteSpace=wrap;html=1;aspect=fixed;fillColor=#f5f5f5;gradientColor=#b3b3b3;strokeColor=#666666;" parent="1" vertex="1">
                    <mxGeometry x="360" y="340" width="60" height="60" as="geometry"/>
                </mxCell>
                <mxCell id="xgAKM0cmW9O3aGKXdA-6-29" style="edgeStyle=orthogonalEdgeStyle;rounded=0;orthogonalLoop=1;jettySize=auto;html=1;entryX=-0.025;entryY=0.05;entryDx=0;entryDy=0;entryPerimeter=0;" parent="1" source="xgAKM0cmW9O3aGKXdA-6-3" target="xgAKM0cmW9O3aGKXdA-6-21" edge="1">
                    <mxGeometry relative="1" as="geometry"/>
                </mxCell>
                <mxCell id="xgAKM0cmW9O3aGKXdA-6-31" value="i_k_tlp_start" style="edgeLabel;html=1;align=center;verticalAlign=middle;resizable=0;points=[];" parent="xgAKM0cmW9O3aGKXdA-6-29" vertex="1" connectable="0">
                    <mxGeometry x="0.7297" y="-2" relative="1" as="geometry">
                        <mxPoint x="-1" as="offset"/>
                    </mxGeometry>
                </mxCell>
                <mxCell id="xgAKM0cmW9O3aGKXdA-6-32" style="edgeStyle=orthogonalEdgeStyle;rounded=0;orthogonalLoop=1;jettySize=auto;html=1;entryX=-0.033;entryY=0.068;entryDx=0;entryDy=0;entryPerimeter=0;" parent="1" edge="1">
                    <mxGeometry relative="1" as="geometry">
                        <mxPoint x="420" y="169.5" as="sourcePoint"/>
                        <mxPoint x="916" y="169.5" as="targetPoint"/>
                    </mxGeometry>
                </mxCell>
                <mxCell id="xgAKM0cmW9O3aGKXdA-6-33" value="i_k_dllp_start" style="edgeLabel;html=1;align=center;verticalAlign=middle;resizable=0;points=[];" parent="xgAKM0cmW9O3aGKXdA-6-32" vertex="1" connectable="0">
                    <mxGeometry x="0.7297" y="-2" relative="1" as="geometry">
                        <mxPoint x="-1" as="offset"/>
                    </mxGeometry>
                </mxCell>
                <mxCell id="xgAKM0cmW9O3aGKXdA-6-34" style="edgeStyle=orthogonalEdgeStyle;rounded=0;orthogonalLoop=1;jettySize=auto;html=1;entryX=-0.033;entryY=0.068;entryDx=0;entryDy=0;entryPerimeter=0;" parent="1" edge="1">
                    <mxGeometry relative="1" as="geometry">
                        <mxPoint x="420" y="269.5" as="sourcePoint"/>
                        <mxPoint x="916" y="269.5" as="targetPoint"/>
                    </mxGeometry>
                </mxCell>
                <mxCell id="xgAKM0cmW9O3aGKXdA-6-35" value="i_k_stop" style="edgeLabel;html=1;align=center;verticalAlign=middle;resizable=0;points=[];" parent="xgAKM0cmW9O3aGKXdA-6-34" vertex="1" connectable="0">
                    <mxGeometry x="0.7297" y="-2" relative="1" as="geometry">
                        <mxPoint x="-1" as="offset"/>
                    </mxGeometry>
                </mxCell>
                <mxCell id="ey6UAfCEmoFDKdkTlSG3-42" style="edgeStyle=orthogonalEdgeStyle;rounded=0;orthogonalLoop=1;jettySize=auto;html=1;exitX=1;exitY=0;exitDx=0;exitDy=27.5;exitPerimeter=0;" parent="1" source="xgAKM0cmW9O3aGKXdA-6-38" edge="1">
                    <mxGeometry relative="1" as="geometry">
                        <mxPoint x="1300" y="757.6551724137933" as="targetPoint"/>
                    </mxGeometry>
                </mxCell>
                <mxCell id="ey6UAfCEmoFDKdkTlSG3-47" value="o_tlp" style="edgeLabel;html=1;align=center;verticalAlign=middle;resizable=0;points=[];" parent="ey6UAfCEmoFDKdkTlSG3-42" vertex="1" connectable="0">
                    <mxGeometry x="-0.2693" y="2" relative="1" as="geometry">
                        <mxPoint as="offset"/>
                    </mxGeometry>
                </mxCell>
                <mxCell id="ey6UAfCEmoFDKdkTlSG3-43" style="edgeStyle=orthogonalEdgeStyle;rounded=0;orthogonalLoop=1;jettySize=auto;html=1;exitX=1;exitY=0;exitDx=0;exitDy=52.5;exitPerimeter=0;entryX=1;entryY=0;entryDx=0;entryDy=52.5;entryPerimeter=0;" parent="1" target="xgAKM0cmW9O3aGKXdA-6-38" edge="1">
                    <mxGeometry relative="1" as="geometry">
                        <mxPoint x="1300" y="782.4827586206898" as="sourcePoint"/>
                    </mxGeometry>
                </mxCell>
                <mxCell id="ey6UAfCEmoFDKdkTlSG3-48" value="i_rd_tlp" style="edgeLabel;html=1;align=center;verticalAlign=middle;resizable=0;points=[];" parent="ey6UAfCEmoFDKdkTlSG3-43" vertex="1" connectable="0">
                    <mxGeometry x="0.2093" y="3" relative="1" as="geometry">
                        <mxPoint x="12" as="offset"/>
                    </mxGeometry>
                </mxCell>
                <mxCell id="xgAKM0cmW9O3aGKXdA-6-38" value="TLP" style="shape=cylinder3;whiteSpace=wrap;html=1;boundedLbl=1;backgroundOutline=1;size=15;dashed=1;fillColor=#fff2cc;gradientColor=#ffd966;strokeColor=#d6b656;" parent="1" vertex="1">
                    <mxGeometry x="1170" y="730" width="60" height="80" as="geometry"/>
                </mxCell>
                <mxCell id="xgAKM0cmW9O3aGKXdA-6-48" value="==" style="whiteSpace=wrap;html=1;aspect=fixed;fillColor=#f5f5f5;gradientColor=#b3b3b3;strokeColor=#666666;" parent="1" vertex="1">
                    <mxGeometry x="620" y="580" width="60" height="60" as="geometry"/>
                </mxCell>
                <mxCell id="xgAKM0cmW9O3aGKXdA-6-53" style="edgeStyle=orthogonalEdgeStyle;rounded=0;orthogonalLoop=1;jettySize=auto;html=1;entryX=0;entryY=0.95;entryDx=0;entryDy=0;entryPerimeter=0;jumpStyle=arc;" parent="1" source="xgAKM0cmW9O3aGKXdA-6-48" target="xgAKM0cmW9O3aGKXdA-6-21" edge="1">
                    <mxGeometry relative="1" as="geometry"/>
                </mxCell>
                <mxCell id="xgAKM0cmW9O3aGKXdA-6-54" value="i_crc_ok" style="edgeLabel;html=1;align=center;verticalAlign=middle;resizable=0;points=[];" parent="xgAKM0cmW9O3aGKXdA-6-53" vertex="1" connectable="0">
                    <mxGeometry x="0.6506" y="1" relative="1" as="geometry">
                        <mxPoint as="offset"/>
                    </mxGeometry>
                </mxCell>
                <mxCell id="ey6UAfCEmoFDKdkTlSG3-41" style="edgeStyle=orthogonalEdgeStyle;rounded=0;orthogonalLoop=1;jettySize=auto;html=1;exitX=1;exitY=0;exitDx=0;exitDy=27.5;exitPerimeter=0;" parent="1" source="xgAKM0cmW9O3aGKXdA-6-66" edge="1">
                    <mxGeometry relative="1" as="geometry">
                        <mxPoint x="1300" y="657.6551724137933" as="targetPoint"/>
                    </mxGeometry>
                </mxCell>
                <mxCell id="ey6UAfCEmoFDKdkTlSG3-45" value="o_dllp" style="edgeLabel;html=1;align=center;verticalAlign=middle;resizable=0;points=[];" parent="ey6UAfCEmoFDKdkTlSG3-41" vertex="1" connectable="0">
                    <mxGeometry x="-0.3669" y="2" relative="1" as="geometry">
                        <mxPoint x="8" as="offset"/>
                    </mxGeometry>
                </mxCell>
                <mxCell id="ey6UAfCEmoFDKdkTlSG3-44" style="edgeStyle=orthogonalEdgeStyle;rounded=0;orthogonalLoop=1;jettySize=auto;html=1;exitX=1;exitY=0;exitDx=0;exitDy=52.5;exitPerimeter=0;entryX=1;entryY=0;entryDx=0;entryDy=52.5;entryPerimeter=0;" parent="1" target="xgAKM0cmW9O3aGKXdA-6-66" edge="1">
                    <mxGeometry relative="1" as="geometry">
                        <mxPoint x="1300" y="682.4827586206898" as="sourcePoint"/>
                    </mxGeometry>
                </mxCell>
                <mxCell id="ey6UAfCEmoFDKdkTlSG3-46" value="i_rd_dllp" style="edgeLabel;html=1;align=center;verticalAlign=middle;resizable=0;points=[];" parent="ey6UAfCEmoFDKdkTlSG3-44" vertex="1" connectable="0">
                    <mxGeometry x="0.1897" y="1" relative="1" as="geometry">
                        <mxPoint x="12" as="offset"/>
                    </mxGeometry>
                </mxCell>
                <mxCell id="ey6UAfCEmoFDKdkTlSG3-49" style="edgeStyle=orthogonalEdgeStyle;rounded=0;orthogonalLoop=1;jettySize=auto;html=1;entryX=0;entryY=0;entryDx=0;entryDy=52.5;entryPerimeter=0;" parent="1" target="xgAKM0cmW9O3aGKXdA-6-66" edge="1">
                    <mxGeometry relative="1" as="geometry">
                        <mxPoint x="710" y="683" as="sourcePoint"/>
                    </mxGeometry>
                </mxCell>
                <mxCell id="xgAKM0cmW9O3aGKXdA-6-66" value="DLLP" style="shape=cylinder3;whiteSpace=wrap;html=1;boundedLbl=1;backgroundOutline=1;size=15;dashed=1;fillColor=#fff2cc;gradientColor=#ffd966;strokeColor=#d6b656;" parent="1" vertex="1">
                    <mxGeometry x="1170" y="630" width="60" height="80" as="geometry"/>
                </mxCell>
                <mxCell id="4NP12ijOtKrpLT4Yhlky-1" value="TLP-TEMP&lt;br&gt;(RAM)" style="shape=cylinder3;whiteSpace=wrap;html=1;boundedLbl=1;backgroundOutline=1;size=15;fillColor=#dae8fc;gradientColor=#7ea6e0;strokeColor=#6c8ebf;" parent="1" vertex="1">
                    <mxGeometry x="680" y="740" width="60" height="80" as="geometry"/>
                </mxCell>
                <mxCell id="ey6UAfCEmoFDKdkTlSG3-27" style="edgeStyle=orthogonalEdgeStyle;rounded=0;orthogonalLoop=1;jettySize=auto;html=1;exitX=1;exitY=0;exitDx=0;exitDy=27.5;exitPerimeter=0;" parent="1" source="4NP12ijOtKrpLT4Yhlky-3" edge="1">
                    <mxGeometry relative="1" as="geometry">
                        <mxPoint x="1290" y="188" as="targetPoint"/>
                    </mxGeometry>
                </mxCell>
                <mxCell id="ey6UAfCEmoFDKdkTlSG3-28" value="o_id_result" style="edgeLabel;html=1;align=center;verticalAlign=middle;resizable=0;points=[];" parent="ey6UAfCEmoFDKdkTlSG3-27" vertex="1" connectable="0">
                    <mxGeometry x="-0.0633" relative="1" as="geometry">
                        <mxPoint as="offset"/>
                    </mxGeometry>
                </mxCell>
                <mxCell id="ey6UAfCEmoFDKdkTlSG3-30" style="edgeStyle=orthogonalEdgeStyle;rounded=0;orthogonalLoop=1;jettySize=auto;html=1;exitX=1;exitY=0;exitDx=0;exitDy=52.5;exitPerimeter=0;entryX=1;entryY=0;entryDx=0;entryDy=52.5;entryPerimeter=0;" parent="1" target="4NP12ijOtKrpLT4Yhlky-3" edge="1">
                    <mxGeometry relative="1" as="geometry">
                        <mxPoint x="1290" y="212.48275862068976" as="sourcePoint"/>
                    </mxGeometry>
                </mxCell>
                <mxCell id="ey6UAfCEmoFDKdkTlSG3-31" value="i_rd_id_result" style="edgeLabel;html=1;align=center;verticalAlign=middle;resizable=0;points=[];" parent="ey6UAfCEmoFDKdkTlSG3-30" vertex="1" connectable="0">
                    <mxGeometry x="0.2316" y="-1" relative="1" as="geometry">
                        <mxPoint x="15" as="offset"/>
                    </mxGeometry>
                </mxCell>
                <mxCell id="ey6UAfCEmoFDKdkTlSG3-36" style="edgeStyle=orthogonalEdgeStyle;rounded=0;orthogonalLoop=1;jettySize=auto;html=1;exitX=1;exitY=0.25;exitDx=0;exitDy=0;entryX=0;entryY=0;entryDx=0;entryDy=27.5;entryPerimeter=0;" parent="1" source="xgAKM0cmW9O3aGKXdA-6-21" target="4NP12ijOtKrpLT4Yhlky-3" edge="1">
                    <mxGeometry relative="1" as="geometry"/>
                </mxCell>
                <mxCell id="4NP12ijOtKrpLT4Yhlky-3" value="ID -&amp;nbsp;&lt;div&gt;RESULT&lt;/div&gt;" style="shape=cylinder3;whiteSpace=wrap;html=1;boundedLbl=1;backgroundOutline=1;size=15;fillColor=#dae8fc;gradientColor=#7ea6e0;strokeColor=#6c8ebf;" parent="1" vertex="1">
                    <mxGeometry x="1140" y="160" width="60" height="80" as="geometry"/>
                </mxCell>
                <mxCell id="ey6UAfCEmoFDKdkTlSG3-7" value="" style="triangle;whiteSpace=wrap;html=1;" parent="1" vertex="1">
                    <mxGeometry x="428" y="360" width="20" height="20" as="geometry"/>
                </mxCell>
                <mxCell id="ey6UAfCEmoFDKdkTlSG3-8" value="" style="ellipse;whiteSpace=wrap;html=1;aspect=fixed;" parent="1" vertex="1">
                    <mxGeometry x="448" y="365" width="10" height="10" as="geometry"/>
                </mxCell>
                <mxCell id="ey6UAfCEmoFDKdkTlSG3-10" value="TR - RESULT" style="shape=cylinder3;whiteSpace=wrap;html=1;boundedLbl=1;backgroundOutline=1;size=15;fillColor=#dae8fc;gradientColor=#7ea6e0;strokeColor=#6c8ebf;" parent="1" vertex="1">
                    <mxGeometry x="750" y="450" width="60" height="80" as="geometry"/>
                </mxCell>
                <mxCell id="xgAKM0cmW9O3aGKXdA-6-67" style="edgeStyle=orthogonalEdgeStyle;rounded=0;orthogonalLoop=1;jettySize=auto;html=1;exitX=1;exitY=0.75;exitDx=0;exitDy=0;jumpStyle=arc;entryX=0.5;entryY=0;entryDx=0;entryDy=0;entryPerimeter=0;" parent="1" source="xgAKM0cmW9O3aGKXdA-6-19" target="4NP12ijOtKrpLT4Yhlky-1" edge="1">
                    <mxGeometry relative="1" as="geometry">
                        <mxPoint x="670" y="720" as="targetPoint"/>
                    </mxGeometry>
                </mxCell>
                <mxCell id="ey6UAfCEmoFDKdkTlSG3-15" value="data_shift_in" style="edgeLabel;html=1;align=center;verticalAlign=middle;resizable=0;points=[];" parent="xgAKM0cmW9O3aGKXdA-6-67" vertex="1" connectable="0">
                    <mxGeometry x="-0.8448" y="-1" relative="1" as="geometry">
                        <mxPoint x="12" y="-1" as="offset"/>
                    </mxGeometry>
                </mxCell>
                <mxCell id="ey6UAfCEmoFDKdkTlSG3-17" style="edgeStyle=orthogonalEdgeStyle;rounded=0;orthogonalLoop=1;jettySize=auto;html=1;entryX=0.5;entryY=0;entryDx=0;entryDy=0;entryPerimeter=0;" parent="1" source="xgAKM0cmW9O3aGKXdA-6-21" target="ey6UAfCEmoFDKdkTlSG3-10" edge="1">
                    <mxGeometry relative="1" as="geometry"/>
                </mxCell>
                <mxCell id="ey6UAfCEmoFDKdkTlSG3-18" value="tr_result" style="edgeLabel;html=1;align=center;verticalAlign=middle;resizable=0;points=[];" parent="ey6UAfCEmoFDKdkTlSG3-17" vertex="1" connectable="0">
                    <mxGeometry x="-0.5032" relative="1" as="geometry">
                        <mxPoint as="offset"/>
                    </mxGeometry>
                </mxCell>
                <mxCell id="ey6UAfCEmoFDKdkTlSG3-19" value="&lt;b&gt;TR - Result&lt;/b&gt;&lt;div&gt;Info from FSM - Controller &amp;amp; TLP Packet-INFO&lt;/div&gt;" style="text;html=1;align=center;verticalAlign=middle;whiteSpace=wrap;rounded=0;" parent="1" vertex="1">
                    <mxGeometry x="650" y="410" width="120" height="30" as="geometry"/>
                </mxCell>
                <mxCell id="ey6UAfCEmoFDKdkTlSG3-20" style="edgeStyle=orthogonalEdgeStyle;rounded=0;orthogonalLoop=1;jettySize=auto;html=1;entryX=1;entryY=0;entryDx=0;entryDy=52.5;entryPerimeter=0;" parent="1" target="ey6UAfCEmoFDKdkTlSG3-10" edge="1">
                    <mxGeometry relative="1" as="geometry">
                        <mxPoint x="920" y="503" as="sourcePoint"/>
                    </mxGeometry>
                </mxCell>
                <mxCell id="ey6UAfCEmoFDKdkTlSG3-21" value="rd_tr_result" style="edgeLabel;html=1;align=center;verticalAlign=middle;resizable=0;points=[];" parent="ey6UAfCEmoFDKdkTlSG3-20" vertex="1" connectable="0">
                    <mxGeometry x="0.2918" relative="1" as="geometry">
                        <mxPoint x="20" as="offset"/>
                    </mxGeometry>
                </mxCell>
                <mxCell id="ey6UAfCEmoFDKdkTlSG3-22" style="edgeStyle=orthogonalEdgeStyle;rounded=0;orthogonalLoop=1;jettySize=auto;html=1;entryX=0.011;entryY=0.835;entryDx=0;entryDy=0;entryPerimeter=0;" parent="1" source="ey6UAfCEmoFDKdkTlSG3-10" target="xgAKM0cmW9O3aGKXdA-6-21" edge="1">
                    <mxGeometry relative="1" as="geometry">
                        <Array as="points">
                            <mxPoint x="780" y="541"/>
                        </Array>
                    </mxGeometry>
                </mxCell>
                <mxCell id="ey6UAfCEmoFDKdkTlSG3-23" value="o_tr_result" style="edgeLabel;html=1;align=center;verticalAlign=middle;resizable=0;points=[];" parent="ey6UAfCEmoFDKdkTlSG3-22" vertex="1" connectable="0">
                    <mxGeometry x="0.1767" y="1" relative="1" as="geometry">
                        <mxPoint as="offset"/>
                    </mxGeometry>
                </mxCell>
                <mxCell id="ey6UAfCEmoFDKdkTlSG3-32" style="edgeStyle=orthogonalEdgeStyle;rounded=0;orthogonalLoop=1;jettySize=auto;html=1;entryX=0;entryY=0;entryDx=0;entryDy=27.5;entryPerimeter=0;jumpStyle=arc;" parent="1" source="xgAKM0cmW9O3aGKXdA-6-21" target="xgAKM0cmW9O3aGKXdA-6-66" edge="1">
                    <mxGeometry relative="1" as="geometry">
                        <Array as="points">
                            <mxPoint x="1140" y="340"/>
                            <mxPoint x="1140" y="658"/>
                        </Array>
                    </mxGeometry>
                </mxCell>
                <mxCell id="ey6UAfCEmoFDKdkTlSG3-40" value="o_dllp_wr" style="edgeLabel;html=1;align=center;verticalAlign=middle;resizable=0;points=[];" parent="ey6UAfCEmoFDKdkTlSG3-32" vertex="1" connectable="0">
                    <mxGeometry x="0.8347" y="1" relative="1" as="geometry">
                        <mxPoint x="-51" y="-310" as="offset"/>
                    </mxGeometry>
                </mxCell>
                <mxCell id="ey6UAfCEmoFDKdkTlSG3-34" style="edgeStyle=orthogonalEdgeStyle;rounded=0;orthogonalLoop=1;jettySize=auto;html=1;exitX=1.023;exitY=0.289;exitDx=0;exitDy=0;exitPerimeter=0;entryX=0;entryY=0;entryDx=0;entryDy=52.5;entryPerimeter=0;" parent="1" source="xgAKM0cmW9O3aGKXdA-6-21" target="4NP12ijOtKrpLT4Yhlky-3" edge="1">
                    <mxGeometry relative="1" as="geometry">
                        <mxPoint x="1069.9999999999998" y="213.39999999999998" as="sourcePoint"/>
                    </mxGeometry>
                </mxCell>
                <mxCell id="ey6UAfCEmoFDKdkTlSG3-35" value="o_id_result_wr" style="edgeLabel;html=1;align=center;verticalAlign=middle;resizable=0;points=[];" parent="ey6UAfCEmoFDKdkTlSG3-34" vertex="1" connectable="0">
                    <mxGeometry x="-0.1883" y="1" relative="1" as="geometry">
                        <mxPoint x="-3" y="-2" as="offset"/>
                    </mxGeometry>
                </mxCell>
                <mxCell id="ey6UAfCEmoFDKdkTlSG3-37" value="o_id_result" style="edgeLabel;html=1;align=center;verticalAlign=middle;resizable=0;points=[];" parent="1" vertex="1" connectable="0">
                    <mxGeometry x="1089.759557869179" y="220.38246854093006" as="geometry">
                        <mxPoint x="-5" y="-33" as="offset"/>
                    </mxGeometry>
                </mxCell>
                <mxCell id="ey6UAfCEmoFDKdkTlSG3-38" style="edgeStyle=orthogonalEdgeStyle;rounded=0;orthogonalLoop=1;jettySize=auto;html=1;exitX=1;exitY=0.75;exitDx=0;exitDy=0;entryX=0;entryY=0.5;entryDx=0;entryDy=0;entryPerimeter=0;" parent="1" source="xgAKM0cmW9O3aGKXdA-6-21" target="xgAKM0cmW9O3aGKXdA-6-38" edge="1">
                    <mxGeometry relative="1" as="geometry">
                        <Array as="points">
                            <mxPoint x="1100" y="490"/>
                            <mxPoint x="1100" y="770"/>
                        </Array>
                    </mxGeometry>
                </mxCell>
                <mxCell id="ey6UAfCEmoFDKdkTlSG3-39" value="o_tlp_wr" style="edgeLabel;html=1;align=center;verticalAlign=middle;resizable=0;points=[];" parent="ey6UAfCEmoFDKdkTlSG3-38" vertex="1" connectable="0">
                    <mxGeometry x="0.8507" y="2" relative="1" as="geometry">
                        <mxPoint x="-70" y="-278" as="offset"/>
                    </mxGeometry>
                </mxCell>
                <mxCell id="ey6UAfCEmoFDKdkTlSG3-50" style="edgeStyle=orthogonalEdgeStyle;rounded=0;orthogonalLoop=1;jettySize=auto;html=1;exitX=0;exitY=0;exitDx=0;exitDy=52.5;exitPerimeter=0;entryX=1;entryY=0.538;entryDx=0;entryDy=0;entryPerimeter=0;" parent="1" source="xgAKM0cmW9O3aGKXdA-6-38" target="4NP12ijOtKrpLT4Yhlky-1" edge="1">
                    <mxGeometry relative="1" as="geometry">
                        <mxPoint x="720" y="783" as="targetPoint"/>
                        <Array as="points">
                            <mxPoint x="940" y="783"/>
                        </Array>
                    </mxGeometry>
                </mxCell>
                <mxCell id="ey6UAfCEmoFDKdkTlSG3-51" style="edgeStyle=orthogonalEdgeStyle;rounded=0;orthogonalLoop=1;jettySize=auto;html=1;exitX=0.25;exitY=1;exitDx=0;exitDy=0;entryX=1;entryY=0;entryDx=0;entryDy=15;entryPerimeter=0;" parent="1" source="xgAKM0cmW9O3aGKXdA-6-21" target="4NP12ijOtKrpLT4Yhlky-1" edge="1">
                    <mxGeometry relative="1" as="geometry"/>
                </mxCell>
                <mxCell id="ey6UAfCEmoFDKdkTlSG3-53" value="o_wr_tlp_temp" style="edgeLabel;html=1;align=center;verticalAlign=middle;resizable=0;points=[];" parent="ey6UAfCEmoFDKdkTlSG3-51" vertex="1" connectable="0">
                    <mxGeometry x="0.662" relative="1" as="geometry">
                        <mxPoint as="offset"/>
                    </mxGeometry>
                </mxCell>
                <mxCell id="ey6UAfCEmoFDKdkTlSG3-52" style="edgeStyle=orthogonalEdgeStyle;rounded=0;orthogonalLoop=1;jettySize=auto;html=1;entryX=1;entryY=0;entryDx=0;entryDy=27.5;entryPerimeter=0;" parent="1" source="xgAKM0cmW9O3aGKXdA-6-21" target="4NP12ijOtKrpLT4Yhlky-1" edge="1">
                    <mxGeometry relative="1" as="geometry">
                        <Array as="points">
                            <mxPoint x="970" y="768"/>
                        </Array>
                    </mxGeometry>
                </mxCell>
                <mxCell id="ey6UAfCEmoFDKdkTlSG3-54" value="o_rd_tlp_temp" style="edgeLabel;html=1;align=center;verticalAlign=middle;resizable=0;points=[];" parent="ey6UAfCEmoFDKdkTlSG3-52" vertex="1" connectable="0">
                    <mxGeometry x="0.7763" y="2" relative="1" as="geometry">
                        <mxPoint x="17" y="1" as="offset"/>
                    </mxGeometry>
                </mxCell>
                <mxCell id="2" style="edgeStyle=none;html=1;exitX=1;exitY=0.5;exitDx=0;exitDy=0;entryX=-0.002;entryY=0.552;entryDx=0;entryDy=0;entryPerimeter=0;jumpStyle=arc;" edge="1" parent="1" source="ey6UAfCEmoFDKdkTlSG3-8" target="xgAKM0cmW9O3aGKXdA-6-21">
                    <mxGeometry relative="1" as="geometry"/>
                </mxCell>
                <mxCell id="3" value="i_k_skp_n" style="edgeLabel;html=1;align=center;verticalAlign=middle;resizable=0;points=[];" vertex="1" connectable="0" parent="2">
                    <mxGeometry x="0.7089" y="-1" relative="1" as="geometry">
                        <mxPoint as="offset"/>
                    </mxGeometry>
                </mxCell>
            </root>
        </mxGraphModel>
    </diagram>
</mxfile>